<mxfile host="app.diagrams.net" modified="2020-12-27T23:18:59.021Z" agent="5.0 (Macintosh; Intel Mac OS X 10_14_6) AppleWebKit/537.36 (KHTML, like Gecko) Chrome/87.0.4280.88 Safari/537.36 Edg/87.0.664.66" etag="V67MH4rxNCRUcatRCkJu" version="14.1.2" type="github">
  <diagram id="1eaEp4smZeBg_3T7eLWt" name="Page-1">
    <mxGraphModel dx="850" dy="586" grid="1" gridSize="10" guides="1" tooltips="1" connect="1" arrows="1" fold="1" page="1" pageScale="1" pageWidth="850" pageHeight="600" math="0" shadow="0">
      <root>
        <mxCell id="0" />
        <mxCell id="1" parent="0" />
        <mxCell id="Q1B7LOAP0Nf7Fxr3te_h-1" value="" style="rounded=1;whiteSpace=wrap;html=1;" vertex="1" parent="1">
          <mxGeometry x="260" y="189.75" width="20" height="110" as="geometry" />
        </mxCell>
        <mxCell id="Q1B7LOAP0Nf7Fxr3te_h-2" value="Archetype" style="text;html=1;strokeColor=none;fillColor=none;align=center;verticalAlign=middle;whiteSpace=wrap;rounded=0;fontSize=16;" vertex="1" parent="1">
          <mxGeometry x="135" y="186" width="80" height="27.5" as="geometry" />
        </mxCell>
        <mxCell id="Q1B7LOAP0Nf7Fxr3te_h-3" value="entity" style="text;html=1;strokeColor=none;fillColor=none;align=center;verticalAlign=middle;whiteSpace=wrap;rounded=0;fontSize=16;" vertex="1" parent="1">
          <mxGeometry x="290" y="189.75" width="60" height="20" as="geometry" />
        </mxCell>
        <mxCell id="Q1B7LOAP0Nf7Fxr3te_h-4" value="" style="endArrow=none;html=1;rounded=0;fontSize=22;exitX=1;exitY=0.75;exitDx=0;exitDy=0;" edge="1" parent="1" source="Q1B7LOAP0Nf7Fxr3te_h-2">
          <mxGeometry relative="1" as="geometry">
            <mxPoint x="220" y="199.75" as="sourcePoint" />
            <mxPoint x="250" y="219.75" as="targetPoint" />
          </mxGeometry>
        </mxCell>
        <mxCell id="Q1B7LOAP0Nf7Fxr3te_h-5" value="mesh" style="text;html=1;strokeColor=none;fillColor=none;align=center;verticalAlign=middle;whiteSpace=wrap;rounded=0;fontSize=16;" vertex="1" parent="1">
          <mxGeometry x="290" y="219.75" width="60" height="20" as="geometry" />
        </mxCell>
        <mxCell id="Q1B7LOAP0Nf7Fxr3te_h-6" value="pos3" style="text;html=1;strokeColor=none;fillColor=none;align=center;verticalAlign=middle;whiteSpace=wrap;rounded=0;fontSize=16;" vertex="1" parent="1">
          <mxGeometry x="290" y="249.75" width="60" height="20" as="geometry" />
        </mxCell>
        <mxCell id="Q1B7LOAP0Nf7Fxr3te_h-7" value="rot3" style="text;html=1;strokeColor=none;fillColor=none;align=center;verticalAlign=middle;whiteSpace=wrap;rounded=0;fontSize=16;" vertex="1" parent="1">
          <mxGeometry x="290" y="279.75" width="60" height="20" as="geometry" />
        </mxCell>
        <mxCell id="Q1B7LOAP0Nf7Fxr3te_h-8" value="" style="rounded=0;whiteSpace=wrap;html=1;" vertex="1" parent="1">
          <mxGeometry x="360" y="279.75" width="30" height="20" as="geometry" />
        </mxCell>
        <mxCell id="Q1B7LOAP0Nf7Fxr3te_h-9" value="" style="rounded=0;whiteSpace=wrap;html=1;" vertex="1" parent="1">
          <mxGeometry x="400" y="279.75" width="30" height="20" as="geometry" />
        </mxCell>
        <mxCell id="Q1B7LOAP0Nf7Fxr3te_h-10" value="" style="rounded=0;whiteSpace=wrap;html=1;" vertex="1" parent="1">
          <mxGeometry x="440" y="249.75" width="30" height="20" as="geometry" />
        </mxCell>
        <mxCell id="Q1B7LOAP0Nf7Fxr3te_h-11" value="" style="rounded=0;whiteSpace=wrap;html=1;" vertex="1" parent="1">
          <mxGeometry x="480" y="249.75" width="30" height="20" as="geometry" />
        </mxCell>
        <mxCell id="Q1B7LOAP0Nf7Fxr3te_h-12" value="" style="rounded=0;whiteSpace=wrap;html=1;" vertex="1" parent="1">
          <mxGeometry x="520" y="219.75" width="30" height="20" as="geometry" />
        </mxCell>
        <mxCell id="Q1B7LOAP0Nf7Fxr3te_h-13" value="" style="rounded=0;whiteSpace=wrap;html=1;" vertex="1" parent="1">
          <mxGeometry x="560" y="219.75" width="30" height="20" as="geometry" />
        </mxCell>
        <mxCell id="Q1B7LOAP0Nf7Fxr3te_h-14" value="" style="rounded=0;whiteSpace=wrap;html=1;" vertex="1" parent="1">
          <mxGeometry x="600" y="189.75" width="30" height="20" as="geometry" />
        </mxCell>
        <mxCell id="Q1B7LOAP0Nf7Fxr3te_h-15" value="" style="rounded=0;whiteSpace=wrap;html=1;" vertex="1" parent="1">
          <mxGeometry x="640" y="189.75" width="30" height="20" as="geometry" />
        </mxCell>
        <mxCell id="Q1B7LOAP0Nf7Fxr3te_h-16" value="" style="endArrow=none;html=1;fontSize=22;entryX=0;entryY=0.5;entryDx=0;entryDy=0;" edge="1" parent="1" source="Q1B7LOAP0Nf7Fxr3te_h-3" target="Q1B7LOAP0Nf7Fxr3te_h-14">
          <mxGeometry width="50" height="50" relative="1" as="geometry">
            <mxPoint x="360" y="199.75" as="sourcePoint" />
            <mxPoint x="590" y="200" as="targetPoint" />
          </mxGeometry>
        </mxCell>
        <mxCell id="Q1B7LOAP0Nf7Fxr3te_h-17" value="" style="endArrow=none;html=1;fontSize=22;entryX=0;entryY=0.5;entryDx=0;entryDy=0;" edge="1" parent="1" source="Q1B7LOAP0Nf7Fxr3te_h-5" target="Q1B7LOAP0Nf7Fxr3te_h-12">
          <mxGeometry width="50" height="50" relative="1" as="geometry">
            <mxPoint x="360" y="229.55" as="sourcePoint" />
            <mxPoint x="510" y="230" as="targetPoint" />
          </mxGeometry>
        </mxCell>
        <mxCell id="Q1B7LOAP0Nf7Fxr3te_h-18" value="" style="endArrow=none;html=1;fontSize=22;entryX=0;entryY=0.5;entryDx=0;entryDy=0;" edge="1" parent="1" source="Q1B7LOAP0Nf7Fxr3te_h-6" target="Q1B7LOAP0Nf7Fxr3te_h-10">
          <mxGeometry width="50" height="50" relative="1" as="geometry">
            <mxPoint x="360" y="259.82500000000005" as="sourcePoint" />
            <mxPoint x="430" y="260" as="targetPoint" />
          </mxGeometry>
        </mxCell>
        <mxCell id="Q1B7LOAP0Nf7Fxr3te_h-19" value="" style="endArrow=none;html=1;fontSize=22;exitX=1;exitY=0.5;exitDx=0;exitDy=0;entryX=0;entryY=0.5;entryDx=0;entryDy=0;" edge="1" parent="1" source="Q1B7LOAP0Nf7Fxr3te_h-7" target="Q1B7LOAP0Nf7Fxr3te_h-8">
          <mxGeometry width="50" height="50" relative="1" as="geometry">
            <mxPoint x="360" y="269.81818181818187" as="sourcePoint" />
            <mxPoint x="440" y="270" as="targetPoint" />
          </mxGeometry>
        </mxCell>
        <mxCell id="Q1B7LOAP0Nf7Fxr3te_h-20" value="" style="endArrow=none;html=1;fontSize=22;entryX=0;entryY=0.5;entryDx=0;entryDy=0;exitX=1;exitY=0.5;exitDx=0;exitDy=0;" edge="1" parent="1" source="Q1B7LOAP0Nf7Fxr3te_h-14" target="Q1B7LOAP0Nf7Fxr3te_h-15">
          <mxGeometry width="50" height="50" relative="1" as="geometry">
            <mxPoint x="360" y="209.75" as="sourcePoint" />
            <mxPoint x="610" y="209.75" as="targetPoint" />
          </mxGeometry>
        </mxCell>
        <mxCell id="Q1B7LOAP0Nf7Fxr3te_h-21" value="" style="endArrow=none;html=1;fontSize=22;entryX=0;entryY=0.5;entryDx=0;entryDy=0;exitX=1;exitY=0.5;exitDx=0;exitDy=0;" edge="1" parent="1">
          <mxGeometry width="50" height="50" relative="1" as="geometry">
            <mxPoint x="550" y="229.68000000000006" as="sourcePoint" />
            <mxPoint x="560" y="229.68000000000006" as="targetPoint" />
          </mxGeometry>
        </mxCell>
        <mxCell id="Q1B7LOAP0Nf7Fxr3te_h-22" value="" style="endArrow=none;html=1;fontSize=22;exitX=1;exitY=0.5;exitDx=0;exitDy=0;" edge="1" parent="1" source="Q1B7LOAP0Nf7Fxr3te_h-10" target="Q1B7LOAP0Nf7Fxr3te_h-11">
          <mxGeometry width="50" height="50" relative="1" as="geometry">
            <mxPoint x="560" y="239.67999999999995" as="sourcePoint" />
            <mxPoint x="570" y="239.67999999999995" as="targetPoint" />
          </mxGeometry>
        </mxCell>
        <mxCell id="Q1B7LOAP0Nf7Fxr3te_h-23" value="" style="endArrow=none;html=1;fontSize=22;exitX=1;exitY=0.5;exitDx=0;exitDy=0;entryX=0;entryY=0.5;entryDx=0;entryDy=0;" edge="1" parent="1" source="Q1B7LOAP0Nf7Fxr3te_h-8" target="Q1B7LOAP0Nf7Fxr3te_h-9">
          <mxGeometry width="50" height="50" relative="1" as="geometry">
            <mxPoint x="480" y="269.75" as="sourcePoint" />
            <mxPoint x="490" y="269.75" as="targetPoint" />
          </mxGeometry>
        </mxCell>
        <mxCell id="Q1B7LOAP0Nf7Fxr3te_h-24" value="" style="endArrow=none;html=1;fontSize=22;exitX=0.5;exitY=1;exitDx=0;exitDy=0;" edge="1" parent="1" source="Q1B7LOAP0Nf7Fxr3te_h-8" target="Q1B7LOAP0Nf7Fxr3te_h-25">
          <mxGeometry width="50" height="50" relative="1" as="geometry">
            <mxPoint x="400" y="299.75" as="sourcePoint" />
            <mxPoint x="375" y="310" as="targetPoint" />
          </mxGeometry>
        </mxCell>
        <mxCell id="Q1B7LOAP0Nf7Fxr3te_h-25" value="" style="rounded=0;whiteSpace=wrap;html=1;fillColor=#363636;" vertex="1" parent="1">
          <mxGeometry x="360" y="310" width="30" height="210" as="geometry" />
        </mxCell>
        <mxCell id="Q1B7LOAP0Nf7Fxr3te_h-26" value="" style="endArrow=none;html=1;fontSize=22;exitX=0.5;exitY=1;exitDx=0;exitDy=0;" edge="1" parent="1" target="Q1B7LOAP0Nf7Fxr3te_h-27">
          <mxGeometry width="50" height="50" relative="1" as="geometry">
            <mxPoint x="415" y="299.75" as="sourcePoint" />
            <mxPoint x="415" y="310" as="targetPoint" />
          </mxGeometry>
        </mxCell>
        <mxCell id="Q1B7LOAP0Nf7Fxr3te_h-27" value="" style="rounded=0;whiteSpace=wrap;html=1;" vertex="1" parent="1">
          <mxGeometry x="400" y="310" width="30" height="210" as="geometry" />
        </mxCell>
        <mxCell id="Q1B7LOAP0Nf7Fxr3te_h-28" value="" style="endArrow=none;html=1;fontSize=22;exitX=0.5;exitY=1;exitDx=0;exitDy=0;" edge="1" parent="1" target="Q1B7LOAP0Nf7Fxr3te_h-29">
          <mxGeometry width="50" height="50" relative="1" as="geometry">
            <mxPoint x="455" y="269.75" as="sourcePoint" />
            <mxPoint x="455" y="280" as="targetPoint" />
          </mxGeometry>
        </mxCell>
        <mxCell id="Q1B7LOAP0Nf7Fxr3te_h-29" value="" style="rounded=0;whiteSpace=wrap;html=1;fillColor=#363636;" vertex="1" parent="1">
          <mxGeometry x="440" y="280" width="30" height="210" as="geometry" />
        </mxCell>
        <mxCell id="Q1B7LOAP0Nf7Fxr3te_h-30" value="" style="endArrow=none;html=1;fontSize=22;exitX=0.5;exitY=1;exitDx=0;exitDy=0;" edge="1" parent="1" target="Q1B7LOAP0Nf7Fxr3te_h-31">
          <mxGeometry width="50" height="50" relative="1" as="geometry">
            <mxPoint x="495" y="269.75" as="sourcePoint" />
            <mxPoint x="495" y="280" as="targetPoint" />
          </mxGeometry>
        </mxCell>
        <mxCell id="Q1B7LOAP0Nf7Fxr3te_h-31" value="" style="rounded=0;whiteSpace=wrap;html=1;" vertex="1" parent="1">
          <mxGeometry x="480" y="280" width="30" height="210" as="geometry" />
        </mxCell>
        <mxCell id="Q1B7LOAP0Nf7Fxr3te_h-32" value="" style="endArrow=none;html=1;fontSize=22;exitX=0.5;exitY=1;exitDx=0;exitDy=0;" edge="1" parent="1" target="Q1B7LOAP0Nf7Fxr3te_h-33">
          <mxGeometry width="50" height="50" relative="1" as="geometry">
            <mxPoint x="535" y="239.75" as="sourcePoint" />
            <mxPoint x="535" y="250" as="targetPoint" />
          </mxGeometry>
        </mxCell>
        <mxCell id="Q1B7LOAP0Nf7Fxr3te_h-33" value="" style="rounded=0;whiteSpace=wrap;html=1;fillColor=#363636;" vertex="1" parent="1">
          <mxGeometry x="520" y="250" width="30" height="210" as="geometry" />
        </mxCell>
        <mxCell id="Q1B7LOAP0Nf7Fxr3te_h-34" value="" style="endArrow=none;html=1;fontSize=22;exitX=0.5;exitY=1;exitDx=0;exitDy=0;" edge="1" parent="1" target="Q1B7LOAP0Nf7Fxr3te_h-35">
          <mxGeometry width="50" height="50" relative="1" as="geometry">
            <mxPoint x="575" y="239.75" as="sourcePoint" />
            <mxPoint x="575" y="250" as="targetPoint" />
          </mxGeometry>
        </mxCell>
        <mxCell id="Q1B7LOAP0Nf7Fxr3te_h-35" value="" style="rounded=0;whiteSpace=wrap;html=1;" vertex="1" parent="1">
          <mxGeometry x="560" y="250" width="30" height="210" as="geometry" />
        </mxCell>
        <mxCell id="Q1B7LOAP0Nf7Fxr3te_h-36" value="" style="endArrow=none;html=1;fontSize=22;exitX=0.5;exitY=1;exitDx=0;exitDy=0;" edge="1" parent="1" target="Q1B7LOAP0Nf7Fxr3te_h-37">
          <mxGeometry width="50" height="50" relative="1" as="geometry">
            <mxPoint x="615" y="209.75" as="sourcePoint" />
            <mxPoint x="615" y="220" as="targetPoint" />
          </mxGeometry>
        </mxCell>
        <mxCell id="Q1B7LOAP0Nf7Fxr3te_h-37" value="" style="rounded=0;whiteSpace=wrap;html=1;fillColor=#363636;" vertex="1" parent="1">
          <mxGeometry x="600" y="220" width="30" height="210" as="geometry" />
        </mxCell>
        <mxCell id="Q1B7LOAP0Nf7Fxr3te_h-38" value="" style="endArrow=none;html=1;fontSize=22;exitX=0.5;exitY=1;exitDx=0;exitDy=0;" edge="1" parent="1" target="Q1B7LOAP0Nf7Fxr3te_h-39">
          <mxGeometry width="50" height="50" relative="1" as="geometry">
            <mxPoint x="655" y="209.75" as="sourcePoint" />
            <mxPoint x="655" y="220" as="targetPoint" />
          </mxGeometry>
        </mxCell>
        <mxCell id="Q1B7LOAP0Nf7Fxr3te_h-39" value="" style="rounded=0;whiteSpace=wrap;html=1;" vertex="1" parent="1">
          <mxGeometry x="640" y="220" width="30" height="210" as="geometry" />
        </mxCell>
        <mxCell id="Q1B7LOAP0Nf7Fxr3te_h-40" value="" style="rounded=0;whiteSpace=wrap;html=1;fontSize=22;fillColor=#363636;" vertex="1" parent="1">
          <mxGeometry x="400" y="310" width="30" height="140" as="geometry" />
        </mxCell>
        <mxCell id="Q1B7LOAP0Nf7Fxr3te_h-41" value="" style="rounded=0;whiteSpace=wrap;html=1;fontSize=22;fillColor=#363636;" vertex="1" parent="1">
          <mxGeometry x="480" y="279.75" width="30" height="140" as="geometry" />
        </mxCell>
        <mxCell id="Q1B7LOAP0Nf7Fxr3te_h-42" value="" style="rounded=0;whiteSpace=wrap;html=1;fontSize=22;fillColor=#363636;" vertex="1" parent="1">
          <mxGeometry x="560" y="249.75" width="30" height="140" as="geometry" />
        </mxCell>
        <mxCell id="Q1B7LOAP0Nf7Fxr3te_h-43" value="" style="rounded=0;whiteSpace=wrap;html=1;fontSize=22;fillColor=#363636;" vertex="1" parent="1">
          <mxGeometry x="640" y="219.75" width="30" height="140" as="geometry" />
        </mxCell>
        <mxCell id="Q1B7LOAP0Nf7Fxr3te_h-44" value="Half full array chunk" style="text;html=1;strokeColor=none;fillColor=none;align=center;verticalAlign=middle;whiteSpace=wrap;rounded=0;fontSize=14;" vertex="1" parent="1">
          <mxGeometry x="730" y="345" width="90" height="35" as="geometry" />
        </mxCell>
        <mxCell id="Q1B7LOAP0Nf7Fxr3te_h-46" value="" style="endArrow=classic;html=1;exitX=0;exitY=0.5;exitDx=0;exitDy=0;" edge="1" parent="1" source="Q1B7LOAP0Nf7Fxr3te_h-44">
          <mxGeometry width="50" height="50" relative="1" as="geometry">
            <mxPoint x="400" y="360" as="sourcePoint" />
            <mxPoint x="680" y="360" as="targetPoint" />
          </mxGeometry>
        </mxCell>
      </root>
    </mxGraphModel>
  </diagram>
</mxfile>
